<svg width="140" height="103" viewBox="0 0 140 103" fill="none" xmlns="http://www.w3.org/2000/svg">
<g filter="url(#filter0_d_12_125)">
<path d="M83.4021 51.5C83.4021 68.897 69.209 83 51.701 83C34.193 83 20 68.897 20 51.5C20 34.103 34.193 20 51.701 20C69.209 20 83.4021 34.103 83.4021 51.5Z" fill="white"/>
<path d="M120 61.0533C120 73.1741 110.192 83 98.0928 83C85.9938 83 76.1856 73.1741 76.1856 61.0533C76.1856 48.9324 85.9938 39.1066 98.0928 39.1066C110.192 39.1066 120 48.9324 120 61.0533Z" fill="white"/>
<path d="M31.3402 61.3593C31.3402 52.4918 38.5158 45.3033 47.3673 45.3033H104.777C113.185 45.3033 120 52.131 120 60.5533C120 72.9503 109.968 83 97.5937 83H52.942C41.0116 83 31.3402 73.3111 31.3402 61.3593Z" fill="white"/>
</g>
<defs>
<filter id="filter0_d_12_125" x="0" y="0" width="140" height="103" filterUnits="userSpaceOnUse" color-interpolation-filters="sRGB">
<feFlood flood-opacity="0" result="BackgroundImageFix"/>
<feColorMatrix in="SourceAlpha" type="matrix" values="0 0 0 0 0 0 0 0 0 0 0 0 0 0 0 0 0 0 127 0" result="hardAlpha"/>
<feOffset/>
<feGaussianBlur stdDeviation="10"/>
<feComposite in2="hardAlpha" operator="out"/>
<feColorMatrix type="matrix" values="0 0 0 0 0.654902 0 0 0 0 0.74902 0 0 0 0 0.952941 0 0 0 0.5 0"/>
<feBlend mode="normal" in2="BackgroundImageFix" result="effect1_dropShadow_12_125"/>
<feBlend mode="normal" in="SourceGraphic" in2="effect1_dropShadow_12_125" result="shape"/>
</filter>
</defs>
</svg>
