<svg width="140" height="122" viewBox="0 0 140 122" fill="none" xmlns="http://www.w3.org/2000/svg">
<g filter="url(#filter0_d_12_123)">
<path d="M69.0369 71.6157C68.4558 70.8159 67.1649 71.217 67.1649 72.1975V87.9001C67.1649 88.4557 67.6265 88.906 68.1959 88.906H79.6035C80.4403 88.906 80.9285 87.9845 80.4445 87.3184L69.0369 71.6157Z" fill="#695BF9"/>
<path d="M71.7262 101.56C72.2983 102.377 73.6082 101.981 73.6082 100.992V85.3853C73.6082 84.8297 73.1467 84.3793 72.5773 84.3793H61.6442C60.8153 84.3793 60.3254 85.2853 60.7931 85.9529L71.7262 101.56Z" fill="#695BF9"/>
<path d="M68.9691 88.906H70C69.227 88.9291 68.9858 89.0359 68.9691 89.409V88.906Z" fill="#695BF9"/>
<path d="M71.8041 84.3793H70.7732C71.5939 84.3572 71.7492 84.2177 71.8041 83.8764V84.3793Z" fill="#695BF9"/>
<path d="M83.4021 50.6808C83.4021 67.6253 69.209 81.3616 51.701 81.3616C34.193 81.3616 20 67.6253 20 50.6808C20 33.7363 34.193 20 51.701 20C69.209 20 83.4021 33.7363 83.4021 50.6808Z" fill="#E4EAF7"/>
<path d="M120 59.9856C120 71.7912 110.192 81.3616 98.0928 81.3616C85.9938 81.3616 76.1856 71.7912 76.1856 59.9856C76.1856 48.18 85.9938 38.6097 98.0928 38.6097C110.192 38.6097 120 48.18 120 59.9856Z" fill="#E4EAF7"/>
<path d="M31.3402 60.2837C31.3402 51.6468 38.5158 44.6452 47.3673 44.6452H104.777C113.185 44.6452 120 51.2953 120 59.4986C120 71.5732 109.968 81.3616 97.5937 81.3616H52.942C41.0116 81.3616 31.3402 71.9247 31.3402 60.2837Z" fill="#E4EAF7"/>
<path d="M90.9407 89.8097C90.1934 88.5467 90.6369 86.9318 91.9313 86.2026C93.2256 85.4734 94.8807 85.9061 95.628 87.1691L100.396 95.2273C101.143 96.4903 100.7 98.1052 99.4055 98.8344C98.1111 99.5636 96.4561 99.1308 95.7088 97.8679L90.9407 89.8097Z" fill="url(#paint0_linear_12_123)"/>
<path d="M43.2603 89.8097C42.513 88.5467 42.9565 86.9318 44.2508 86.2026C45.5452 85.4734 47.2003 85.9061 47.9476 87.1691L52.7156 95.2273C53.4629 96.4903 53.0194 98.1052 51.7251 98.8344C50.4307 99.5636 48.7756 99.1308 48.0283 97.8679L43.2603 89.8097Z" fill="url(#paint1_linear_12_123)"/>
</g>
<defs>
<filter id="filter0_d_12_123" x="0" y="0" width="140" height="122" filterUnits="userSpaceOnUse" color-interpolation-filters="sRGB">
<feFlood flood-opacity="0" result="BackgroundImageFix"/>
<feColorMatrix in="SourceAlpha" type="matrix" values="0 0 0 0 0 0 0 0 0 0 0 0 0 0 0 0 0 0 127 0" result="hardAlpha"/>
<feOffset/>
<feGaussianBlur stdDeviation="10"/>
<feComposite in2="hardAlpha" operator="out"/>
<feColorMatrix type="matrix" values="0 0 0 0 0.411765 0 0 0 0 0.356863 0 0 0 0 0.976471 0 0 0 0.5 0"/>
<feBlend mode="normal" in2="BackgroundImageFix" result="effect1_dropShadow_12_123"/>
<feBlend mode="normal" in="SourceGraphic" in2="effect1_dropShadow_12_123" result="shape"/>
</filter>
<linearGradient id="paint0_linear_12_123" x1="44.2508" y1="86.2026" x2="52.5734" y2="130.847" gradientUnits="userSpaceOnUse">
<stop stop-color="#695BF9"/>
<stop offset="1" stop-color="#483AE5"/>
</linearGradient>
<linearGradient id="paint1_linear_12_123" x1="44.2508" y1="86.2026" x2="52.5734" y2="130.847" gradientUnits="userSpaceOnUse">
<stop stop-color="#695BF9"/>
<stop offset="1" stop-color="#483AE5"/>
</linearGradient>
</defs>
</svg>
