<svg width="26" height="25" viewBox="0 0 26 25" fill="none" xmlns="http://www.w3.org/2000/svg">
<path d="M19.875 6.25L23.625 12.5L24.0749 13.2499C25.0074 14.804 25.5 16.5824 25.5 18.3948V19.375L25.4704 19.6412C25.1605 22.4305 22.3988 24.2571 19.7106 23.4507V23.4507C18.998 23.2369 18.3496 22.8496 17.8236 22.3236L17.375 21.875M11.75 6.25L13.9545 10.6589C14.1512 11.0525 14.3198 11.4595 14.459 11.8769L14.6718 12.5154C15.2076 14.1229 15.1754 15.8657 14.5804 17.4522L14.525 17.5999C13.944 19.1492 12.8307 20.4413 11.3843 21.2448V21.2448C9.2796 22.4141 6.7204 22.4141 4.61569 21.2448V21.2448C3.16927 20.4413 2.05597 19.1492 1.47498 17.5999L1.41959 17.4522C0.824621 15.8657 0.792359 14.1229 1.3282 12.5154L1.49008 12.0298C1.66299 11.511 1.88363 11.0095 2.14916 10.5315L7.23512 1.37678C7.61843 0.686818 8.55557 0.555567 9.11368 1.11368V1.11368C9.20397 1.20397 9.27911 1.30823 9.33622 1.42243L10.5 3.75L11.75 6.25Z" stroke="#E5E9FC" stroke-linecap="round"/>
</svg>
