<svg width="36" height="26" viewBox="0 0 36 26" fill="none" xmlns="http://www.w3.org/2000/svg">
<path d="M0.5 13.0218H28.8227C30.1716 13.0218 31.4881 12.6085 32.595 11.8376L32.7248 11.7472C33.6362 11.1125 34.3549 10.2387 34.8018 9.22189L34.8299 9.15802C35.2678 8.1618 35.4163 7.06242 35.2586 5.9857L35.2457 5.89753C35.1105 4.97478 34.7409 4.10211 34.1723 3.3629L34.049 3.20258C32.9502 1.77416 31.1791 1.03177 29.3902 1.24979V1.24979C26.8315 1.56165 24.9079 3.73394 24.9079 6.31159V6.7354M4.64474 17.5121H23.7864C24.5239 17.5121 25.6298 17.6395 26.2895 17.9611C27.2588 18.4336 28.2494 19.6528 28.5921 20.6552C29.0287 21.9323 28.6972 23.347 27.6711 24.2475C26.4762 25.296 24.5486 25.1834 23.1807 24.3134C22.3842 23.8068 21.9896 22.8955 21.6842 22.0023V22.0023" stroke="#E5E9FC" stroke-linecap="round"/>
<path d="M2.34211 9.42958H14.6927C15.6489 9.42958 16.5846 9.15219 17.3864 8.63104L17.8746 8.31368C18.5498 7.87477 19.0456 7.20857 19.272 6.43573V6.43573C19.6228 5.2387 19.2837 3.94582 18.3906 3.07502L18.2958 2.98255C16.699 1.42569 14.0842 1.68582 12.8255 3.52674L12.4737 4.04125" stroke="#E5E9FC" stroke-linecap="round"/>
</svg>
